<?xml version="1.0" encoding="UTF-8" standalone="no"?>
<!-- Created with Inkscape (http://www.inkscape.org/) -->

<svg
   xmlns:dc="http://purl.org/dc/elements/1.1/"
   xmlns:cc="http://creativecommons.org/ns#"
   xmlns:rdf="http://www.w3.org/1999/02/22-rdf-syntax-ns#"
   xmlns:svg="http://www.w3.org/2000/svg"
   xmlns="http://www.w3.org/2000/svg"
   xmlns:sodipodi="http://sodipodi.sourceforge.net/DTD/sodipodi-0.dtd"
   xmlns:inkscape="http://www.inkscape.org/namespaces/inkscape"
   width="3840"
   height="2000"
   id="svg4150"
   version="1.1"
   inkscape:version="0.47 r22583"
   sodipodi:docname="Park.svg"
   inkscape:export-filename="/home/goerke/workspace/deegree-alkis/src/main/webapp/WEB-INF/conf/symbols/Park.png"
   inkscape:export-xdpi="90"
   inkscape:export-ydpi="90">
  <defs
     id="defs4152">
    <inkscape:perspective
       sodipodi:type="inkscape:persp3d"
       inkscape:vp_x="0 : 526.18109 : 1"
       inkscape:vp_y="0 : 1000 : 0"
       inkscape:vp_z="744.09448 : 526.18109 : 1"
       inkscape:persp3d-origin="372.04724 : 350.78739 : 1"
       id="perspective4158" />
    <inkscape:perspective
       id="perspective4170"
       inkscape:persp3d-origin="0.5 : 0.33333333 : 1"
       inkscape:vp_z="1 : 0.5 : 1"
       inkscape:vp_y="0 : 1000 : 0"
       inkscape:vp_x="0 : 0.5 : 1"
       sodipodi:type="inkscape:persp3d" />
    <inkscape:perspective
       id="perspective4209"
       inkscape:persp3d-origin="0.5 : 0.33333333 : 1"
       inkscape:vp_z="1 : 0.5 : 1"
       inkscape:vp_y="0 : 1000 : 0"
       inkscape:vp_x="0 : 0.5 : 1"
       sodipodi:type="inkscape:persp3d" />
    <inkscape:perspective
       id="perspective4234"
       inkscape:persp3d-origin="0.5 : 0.33333333 : 1"
       inkscape:vp_z="1 : 0.5 : 1"
       inkscape:vp_y="0 : 1000 : 0"
       inkscape:vp_x="0 : 0.5 : 1"
       sodipodi:type="inkscape:persp3d" />
    <inkscape:perspective
       id="perspective4234-3"
       inkscape:persp3d-origin="0.5 : 0.33333333 : 1"
       inkscape:vp_z="1 : 0.5 : 1"
       inkscape:vp_y="0 : 1000 : 0"
       inkscape:vp_x="0 : 0.5 : 1"
       sodipodi:type="inkscape:persp3d" />
    <inkscape:perspective
       id="perspective3206"
       inkscape:persp3d-origin="0.5 : 0.33333333 : 1"
       inkscape:vp_z="1 : 0.5 : 1"
       inkscape:vp_y="0 : 1000 : 0"
       inkscape:vp_x="0 : 0.5 : 1"
       sodipodi:type="inkscape:persp3d" />
    <inkscape:perspective
       id="perspective4095"
       inkscape:persp3d-origin="0.5 : 0.33333333 : 1"
       inkscape:vp_z="1 : 0.5 : 1"
       inkscape:vp_y="0 : 1000 : 0"
       inkscape:vp_x="0 : 0.5 : 1"
       sodipodi:type="inkscape:persp3d" />
    <inkscape:perspective
       id="perspective4095-4"
       inkscape:persp3d-origin="0.5 : 0.33333333 : 1"
       inkscape:vp_z="1 : 0.5 : 1"
       inkscape:vp_y="0 : 1000 : 0"
       inkscape:vp_x="0 : 0.5 : 1"
       sodipodi:type="inkscape:persp3d" />
    <inkscape:perspective
       id="perspective4095-0"
       inkscape:persp3d-origin="0.5 : 0.33333333 : 1"
       inkscape:vp_z="1 : 0.5 : 1"
       inkscape:vp_y="0 : 1000 : 0"
       inkscape:vp_x="0 : 0.5 : 1"
       sodipodi:type="inkscape:persp3d" />
    <inkscape:perspective
       id="perspective4095-2"
       inkscape:persp3d-origin="0.5 : 0.33333333 : 1"
       inkscape:vp_z="1 : 0.5 : 1"
       inkscape:vp_y="0 : 1000 : 0"
       inkscape:vp_x="0 : 0.5 : 1"
       sodipodi:type="inkscape:persp3d" />
  </defs>
  <sodipodi:namedview
     id="base"
     pagecolor="#ffffff"
     bordercolor="#666666"
     borderopacity="1.0"
     inkscape:pageopacity="0.0"
     inkscape:pageshadow="2"
     inkscape:zoom="0.35"
     inkscape:cx="1918.9778"
     inkscape:cy="1131.16"
     inkscape:document-units="px"
     inkscape:current-layer="layer1"
     showgrid="true"
     inkscape:window-width="1920"
     inkscape:window-height="1009"
     inkscape:window-x="0"
     inkscape:window-y="25"
     inkscape:window-maximized="1">
    <inkscape:grid
       type="xygrid"
       id="grid4160"
       empspacing="5"
       visible="true"
       enabled="true"
       snapvisiblegridlinesonly="true" />
  </sodipodi:namedview>
  <metadata
     id="metadata4155">
    <rdf:RDF>
      <cc:Work
         rdf:about="">
        <dc:format>image/svg+xml</dc:format>
        <dc:type
           rdf:resource="http://purl.org/dc/dcmitype/StillImage" />
        <dc:title></dc:title>
      </cc:Work>
    </rdf:RDF>
  </metadata>
  <g
     inkscape:label="Ebene 1"
     inkscape:groupmode="layer"
     id="layer1"
     transform="translate(0,947.63782)">
    <path
       style="fill:none;stroke:#00ff00;stroke-width:35;stroke-linecap:butt;stroke-linejoin:miter;stroke-miterlimit:4;stroke-opacity:1;stroke-dasharray:none"
       d="m 400,532.36218 88.6213,-266.69264 88.6213,266.69264 84.7198,0"
       id="path2828"
       sodipodi:nodetypes="cccc" />
    <path
       style="fill:none;stroke:#00ff00;stroke-width:35;stroke-miterlimit:4;stroke-opacity:1;stroke-dasharray:none"
       d="m 80.57512,763.9115 c -37.40287,-22.6983 -56.0374,-64.4606 -56.0374,-112.6703 0,-72.2626 56.4498,-130.84298 126.08415,-130.84298 69.63435,0 117.88667,68.5807 117.88667,140.84328 0,41.8302 -18.40117,78.718 -47.83992,102.67"
       id="path3604"
       sodipodi:nodetypes="csscc"
       inkscape:export-xdpi="90"
       inkscape:export-ydpi="90" />
    <path
       style="fill:none;stroke:#00ff00;stroke-width:35;stroke-linecap:butt;stroke-linejoin:miter;stroke-miterlimit:4;stroke-opacity:1;stroke-dasharray:none"
       d="m 231.91359,759.896 107.19653,0"
       id="path3602" />
    <path
       sodipodi:type="arc"
       style="fill:#000000;fill-opacity:1;stroke:#00ff00;stroke-width:35;stroke-miterlimit:4;stroke-opacity:1;stroke-dasharray:none"
       id="path4202"
       sodipodi:cx="100.08929"
       sodipodi:cy="120.08929"
       sodipodi:rx="12.542723"
       sodipodi:ry="10.651502"
       d="m 112.63201,120.08929 a 12.542723,10.651502 0 1 1 -25.085446,0 12.542723,10.651502 0 1 1 25.085446,0 z"
       transform="matrix(0.55252604,0,0,0.63994298,364.00717,680.529)"
       inkscape:transform-center-y="2.5239485" />
    <path
       sodipodi:type="arc"
       style="fill:#000000;fill-opacity:1;stroke:#00ff00;stroke-width:37.92601013;stroke-miterlimit:4;stroke-opacity:1;stroke-dasharray:none"
       id="path4202-6"
       sodipodi:cx="100.08929"
       sodipodi:cy="120.08929"
       sodipodi:rx="12.542723"
       sodipodi:ry="10.651502"
       d="m 112.63201,120.08929 a 12.542723,10.651502 0 1 1 -25.085446,0 12.542723,10.651502 0 1 1 25.085446,0 z"
       transform="matrix(0.5309654,0,0,0.56713583,533.1312,690.1007)"
       inkscape:transform-center-y="2.2368102" />
    <path
       sodipodi:type="arc"
       style="fill:#000000;fill-opacity:1;stroke:#00ff00;stroke-width:37.92601013;stroke-miterlimit:4;stroke-opacity:1;stroke-dasharray:none"
       id="path4202-61"
       sodipodi:cx="100.08929"
       sodipodi:cy="120.08929"
       sodipodi:rx="12.542723"
       sodipodi:ry="10.651502"
       d="m 112.63201,120.08929 a 12.542723,10.651502 0 1 1 -25.085446,0 12.542723,10.651502 0 1 1 25.085446,0 z"
       transform="matrix(0.5309654,0,0,0.56713583,693.0275,464.73672)"
       inkscape:transform-center-y="2.2367997" />
    <path
       sodipodi:type="arc"
       style="fill:#000000;fill-opacity:1;stroke:#00ff00;stroke-width:37.92601013;stroke-miterlimit:4;stroke-opacity:1;stroke-dasharray:none"
       id="path4202-6-5"
       sodipodi:cx="100.08929"
       sodipodi:cy="120.08929"
       sodipodi:rx="12.542723"
       sodipodi:ry="10.651502"
       d="m 112.63201,120.08929 a 12.542723,10.651502 0 1 1 -25.085446,0 12.542723,10.651502 0 1 1 25.085446,0 z"
       transform="matrix(0.5309654,0,0,0.56713583,844.7212,463.39498)"
       inkscape:transform-center-y="2.2368102" />
    <path
       style="fill:none;stroke:#00ff00;stroke-width:35;stroke-linecap:butt;stroke-linejoin:miter;stroke-miterlimit:4;stroke-opacity:1;stroke-dasharray:none"
       d="m 2120,532.36218 88.6213,-266.69264 88.6213,266.69264 84.7198,0"
       id="path2828-7"
       sodipodi:nodetypes="cccc" />
    <path
       style="fill:none;stroke:#00ff00;stroke-width:35;stroke-miterlimit:4;stroke-opacity:1;stroke-dasharray:none"
       d="m 1800.5751,763.9115 c -37.4029,-22.69834 -56.0374,-64.46059 -56.0374,-112.67034 0,-72.26256 56.4498,-130.84294 126.0841,-130.84294 69.6344,0 117.8867,68.5807 117.8867,140.84326 0,41.83021 -18.4012,78.71798 -47.8399,102.67002"
       id="path3604-6"
       sodipodi:nodetypes="csscc"
       inkscape:export-xdpi="90"
       inkscape:export-ydpi="90" />
    <path
       style="fill:none;stroke:#00ff00;stroke-width:35;stroke-linecap:butt;stroke-linejoin:miter;stroke-miterlimit:4;stroke-opacity:1;stroke-dasharray:none"
       d="m 1951.9136,759.896 107.1965,0"
       id="path3602-5" />
    <path
       sodipodi:type="arc"
       style="fill:#000000;fill-opacity:1;stroke:#00ff00;stroke-width:35;stroke-miterlimit:4;stroke-opacity:1;stroke-dasharray:none"
       id="path4202-69"
       sodipodi:cx="100.08929"
       sodipodi:cy="120.08929"
       sodipodi:rx="12.542723"
       sodipodi:ry="10.651502"
       d="m 112.63201,120.08929 a 12.542723,10.651502 0 1 1 -25.085446,0 12.542723,10.651502 0 1 1 25.085446,0 z"
       transform="matrix(0.55252604,0,0,0.63994298,2084.0071,680.52901)"
       inkscape:transform-center-y="2.5239485" />
    <path
       sodipodi:type="arc"
       style="fill:#000000;fill-opacity:1;stroke:#00ff00;stroke-width:37.92601013;stroke-miterlimit:4;stroke-opacity:1;stroke-dasharray:none"
       id="path4202-6-3"
       sodipodi:cx="100.08929"
       sodipodi:cy="120.08929"
       sodipodi:rx="12.542723"
       sodipodi:ry="10.651502"
       d="m 112.63201,120.08929 a 12.542723,10.651502 0 1 1 -25.085446,0 12.542723,10.651502 0 1 1 25.085446,0 z"
       transform="matrix(0.5309654,0,0,0.56713583,2253.1312,690.10073)"
       inkscape:transform-center-y="2.2368102" />
    <path
       sodipodi:type="arc"
       style="fill:#000000;fill-opacity:1;stroke:#00ff00;stroke-width:37.92601013;stroke-miterlimit:4;stroke-opacity:1;stroke-dasharray:none"
       id="path4202-61-7"
       sodipodi:cx="100.08929"
       sodipodi:cy="120.08929"
       sodipodi:rx="12.542723"
       sodipodi:ry="10.651502"
       d="m 112.63201,120.08929 a 12.542723,10.651502 0 1 1 -25.085446,0 12.542723,10.651502 0 1 1 25.085446,0 z"
       transform="matrix(0.5309654,0,0,0.56713583,2413.0275,464.73672)"
       inkscape:transform-center-y="2.2367997" />
    <path
       sodipodi:type="arc"
       style="fill:#000000;fill-opacity:1;stroke:#00ff00;stroke-width:37.92601013;stroke-miterlimit:4;stroke-opacity:1;stroke-dasharray:none"
       id="path4202-6-5-4"
       sodipodi:cx="100.08929"
       sodipodi:cy="120.08929"
       sodipodi:rx="12.542723"
       sodipodi:ry="10.651502"
       d="m 112.63201,120.08929 a 12.542723,10.651502 0 1 1 -25.085446,0 12.542723,10.651502 0 1 1 25.085446,0 z"
       transform="matrix(0.5309654,0,0,0.56713583,2564.7212,463.39498)"
       inkscape:transform-center-y="2.2368102" />
    <path
       style="fill:none;stroke:#00ff00;stroke-width:35;stroke-linecap:butt;stroke-linejoin:miter;stroke-miterlimit:4;stroke-opacity:1;stroke-dasharray:none"
       d="m 1280,-467.63782 88.6213,-266.69264 88.6213,266.69264 84.7198,0"
       id="path2828-78"
       sodipodi:nodetypes="cccc" />
    <path
       style="fill:none;stroke:#00ff00;stroke-width:35;stroke-miterlimit:4;stroke-opacity:1;stroke-dasharray:none"
       d="m 960.57509,-236.08854 c -37.40287,-22.6983 -56.0374,-64.46055 -56.0374,-112.6703 0,-72.26256 56.4498,-130.84294 126.08411,-130.84294 69.6344,0 117.8867,68.5807 117.8867,140.84326 0,41.83021 -18.4012,78.71798 -47.8399,102.66998"
       id="path3604-68"
       sodipodi:nodetypes="csscc"
       inkscape:export-xdpi="90"
       inkscape:export-ydpi="90" />
    <path
       style="fill:none;stroke:#00ff00;stroke-width:35;stroke-linecap:butt;stroke-linejoin:miter;stroke-miterlimit:4;stroke-opacity:1;stroke-dasharray:none"
       d="m 1111.9136,-240.10396 107.1965,0"
       id="path3602-8" />
    <path
       sodipodi:type="arc"
       style="fill:#000000;fill-opacity:1;stroke:#00ff00;stroke-width:35;stroke-miterlimit:4;stroke-opacity:1;stroke-dasharray:none"
       id="path4202-4"
       sodipodi:cx="100.08929"
       sodipodi:cy="120.08929"
       sodipodi:rx="12.542723"
       sodipodi:ry="10.651502"
       d="m 112.63201,120.08929 a 12.542723,10.651502 0 1 1 -25.085446,0 12.542723,10.651502 0 1 1 25.085446,0 z"
       transform="matrix(0.55252604,0,0,0.63994298,1244.0071,-319.47099)"
       inkscape:transform-center-y="2.5239485" />
    <path
       sodipodi:type="arc"
       style="fill:#000000;fill-opacity:1;stroke:#00ff00;stroke-width:37.92601013;stroke-miterlimit:4;stroke-opacity:1;stroke-dasharray:none"
       id="path4202-6-31"
       sodipodi:cx="100.08929"
       sodipodi:cy="120.08929"
       sodipodi:rx="12.542723"
       sodipodi:ry="10.651502"
       d="m 112.63201,120.08929 a 12.542723,10.651502 0 1 1 -25.085446,0 12.542723,10.651502 0 1 1 25.085446,0 z"
       transform="matrix(0.5309654,0,0,0.56713583,1413.1312,-309.89927)"
       inkscape:transform-center-y="2.2368102" />
    <path
       sodipodi:type="arc"
       style="fill:#000000;fill-opacity:1;stroke:#00ff00;stroke-width:37.92601013;stroke-miterlimit:4;stroke-opacity:1;stroke-dasharray:none"
       id="path4202-61-4"
       sodipodi:cx="100.08929"
       sodipodi:cy="120.08929"
       sodipodi:rx="12.542723"
       sodipodi:ry="10.651502"
       d="m 112.63201,120.08929 a 12.542723,10.651502 0 1 1 -25.085446,0 12.542723,10.651502 0 1 1 25.085446,0 z"
       transform="matrix(0.5309654,0,0,0.56713583,1573.0275,-535.26328)"
       inkscape:transform-center-y="2.2367997" />
    <path
       sodipodi:type="arc"
       style="fill:#000000;fill-opacity:1;stroke:#00ff00;stroke-width:37.92601013;stroke-miterlimit:4;stroke-opacity:1;stroke-dasharray:none"
       id="path4202-6-5-9"
       sodipodi:cx="100.08929"
       sodipodi:cy="120.08929"
       sodipodi:rx="12.542723"
       sodipodi:ry="10.651502"
       d="m 112.63201,120.08929 a 12.542723,10.651502 0 1 1 -25.085446,0 12.542723,10.651502 0 1 1 25.085446,0 z"
       transform="matrix(0.5309654,0,0,0.56713583,1724.7212,-536.60502)"
       inkscape:transform-center-y="2.2368102" />
    <path
       style="fill:none;stroke:#00ff00;stroke-width:35;stroke-linecap:butt;stroke-linejoin:miter;stroke-miterlimit:4;stroke-opacity:1;stroke-dasharray:none"
       d="m 3080,-467.63782 88.6213,-266.69264 88.6213,266.69264 84.7198,0"
       id="path2828-0"
       sodipodi:nodetypes="cccc" />
    <path
       style="fill:none;stroke:#00ff00;stroke-width:35;stroke-miterlimit:4;stroke-opacity:1;stroke-dasharray:none"
       d="m 2760.5751,-236.08854 c -37.4029,-22.6983 -56.0374,-64.46055 -56.0374,-112.6703 0,-72.26256 56.4498,-130.84294 126.0841,-130.84294 69.6344,0 117.8867,68.5807 117.8867,140.84326 0,41.83021 -18.4012,78.71798 -47.8399,102.66998"
       id="path3604-689"
       sodipodi:nodetypes="csscc"
       inkscape:export-xdpi="90"
       inkscape:export-ydpi="90" />
    <path
       style="fill:none;stroke:#00ff00;stroke-width:35;stroke-linecap:butt;stroke-linejoin:miter;stroke-miterlimit:4;stroke-opacity:1;stroke-dasharray:none"
       d="m 2911.9136,-240.10396 107.1965,0"
       id="path3602-2" />
    <path
       sodipodi:type="arc"
       style="fill:#000000;fill-opacity:1;stroke:#00ff00;stroke-width:35;stroke-miterlimit:4;stroke-opacity:1;stroke-dasharray:none"
       id="path4202-66"
       sodipodi:cx="100.08929"
       sodipodi:cy="120.08929"
       sodipodi:rx="12.542723"
       sodipodi:ry="10.651502"
       d="m 112.63201,120.08929 a 12.542723,10.651502 0 1 1 -25.085446,0 12.542723,10.651502 0 1 1 25.085446,0 z"
       transform="matrix(0.55252604,0,0,0.63994298,3044.0071,-319.47099)"
       inkscape:transform-center-y="2.5239485" />
    <path
       sodipodi:type="arc"
       style="fill:#000000;fill-opacity:1;stroke:#00ff00;stroke-width:37.92601013;stroke-miterlimit:4;stroke-opacity:1;stroke-dasharray:none"
       id="path4202-6-4"
       sodipodi:cx="100.08929"
       sodipodi:cy="120.08929"
       sodipodi:rx="12.542723"
       sodipodi:ry="10.651502"
       d="m 112.63201,120.08929 a 12.542723,10.651502 0 1 1 -25.085446,0 12.542723,10.651502 0 1 1 25.085446,0 z"
       transform="matrix(0.5309654,0,0,0.56713583,3213.1312,-309.89927)"
       inkscape:transform-center-y="2.2368102" />
    <path
       sodipodi:type="arc"
       style="fill:#000000;fill-opacity:1;stroke:#00ff00;stroke-width:37.92601013;stroke-miterlimit:4;stroke-opacity:1;stroke-dasharray:none"
       id="path4202-61-9"
       sodipodi:cx="100.08929"
       sodipodi:cy="120.08929"
       sodipodi:rx="12.542723"
       sodipodi:ry="10.651502"
       d="m 112.63201,120.08929 a 12.542723,10.651502 0 1 1 -25.085446,0 12.542723,10.651502 0 1 1 25.085446,0 z"
       transform="matrix(0.5309654,0,0,0.56713583,3373.0275,-535.26328)"
       inkscape:transform-center-y="2.2367997" />
    <path
       sodipodi:type="arc"
       style="fill:#000000;fill-opacity:1;stroke:#00ff00;stroke-width:37.92601013;stroke-miterlimit:4;stroke-opacity:1;stroke-dasharray:none"
       id="path4202-6-5-5"
       sodipodi:cx="100.08929"
       sodipodi:cy="120.08929"
       sodipodi:rx="12.542723"
       sodipodi:ry="10.651502"
       d="m 112.63201,120.08929 a 12.542723,10.651502 0 1 1 -25.085446,0 12.542723,10.651502 0 1 1 25.085446,0 z"
       transform="matrix(0.5309654,0,0,0.56713583,3524.7212,-536.60502)"
       inkscape:transform-center-y="2.2368102" />
  </g>
</svg>
