<?xml version="1.0" encoding="UTF-8" standalone="no"?>
<!-- Created with Inkscape (http://www.inkscape.org/) -->

<svg
   xmlns:dc="http://purl.org/dc/elements/1.1/"
   xmlns:cc="http://creativecommons.org/ns#"
   xmlns:rdf="http://www.w3.org/1999/02/22-rdf-syntax-ns#"
   xmlns:svg="http://www.w3.org/2000/svg"
   xmlns="http://www.w3.org/2000/svg"
   xmlns:sodipodi="http://sodipodi.sourceforge.net/DTD/sodipodi-0.dtd"
   xmlns:inkscape="http://www.inkscape.org/namespaces/inkscape"
   width="700"
   height="700"
   id="svg2"
   version="1.1"
   inkscape:version="0.47 r22583"
   sodipodi:docname="Theater.svg"
   inkscape:export-filename="/home/goerke/workspace/deegree-alkis/src/main/webapp/WEB-INF/conf/symbols/Theater.png"
   inkscape:export-xdpi="90"
   inkscape:export-ydpi="90">
  <defs
     id="defs4">
    <inkscape:perspective
       sodipodi:type="inkscape:persp3d"
       inkscape:vp_x="0 : 526.18109 : 1"
       inkscape:vp_y="0 : 1000 : 0"
       inkscape:vp_z="744.09448 : 526.18109 : 1"
       inkscape:persp3d-origin="372.04724 : 350.78739 : 1"
       id="perspective10" />
  </defs>
  <sodipodi:namedview
     id="base"
     pagecolor="#ffffff"
     bordercolor="#666666"
     borderopacity="1.0"
     inkscape:pageopacity="0.0"
     inkscape:pageshadow="2"
     inkscape:zoom="0.7"
     inkscape:cx="617.58329"
     inkscape:cy="384.17276"
     inkscape:document-units="px"
     inkscape:current-layer="layer1"
     showgrid="false"
     inkscape:window-width="1920"
     inkscape:window-height="1009"
     inkscape:window-x="0"
     inkscape:window-y="25"
     inkscape:window-maximized="1"
     showguides="true"
     inkscape:guide-bbox="true" />
  <metadata
     id="metadata7">
    <rdf:RDF>
      <cc:Work
         rdf:about="">
        <dc:format>image/svg+xml</dc:format>
        <dc:type
           rdf:resource="http://purl.org/dc/dcmitype/StillImage" />
        <dc:title />
      </cc:Work>
    </rdf:RDF>
  </metadata>
  <g
     inkscape:label="Ebene 1"
     inkscape:groupmode="layer"
     id="layer1"
     transform="translate(0,-352.36218)">
    <path
       style="fill:#ffffff;stroke:#000000;stroke-width:18;stroke-linecap:butt;stroke-linejoin:miter;stroke-opacity:1;stroke-miterlimit:4;stroke-dasharray:none;fill-opacity:1"
       d="m 155.89286,149.10714 20.98214,7.85714 20.08929,5 27.14285,4.01786 33.92857,2.05357 37.94643,-2.14285 25.89286,-4.91072 31.11018,-11.0102 21.0238,-11.04855 -6.06091,53.15928 -2.02031,35.92355 -11.9099,48.95806 -5,27.05358 -37.32143,104.01785 -8.66071,13.92857 L 274.01786,455 l -13.92857,12.94643 -19.01786,12.94643 -15.17857,8.125 -18.92857,9.01785 L 190,500.89286 173.92857,505 l -14.91071,-4.01786 -18.125,-7.94643 -15.89286,-10 -12.94643,-17.23214 -10.17857,-93.83929 -2.857143,-73.83928 0,0 22.946433,-110 23.125,-43.125 10.80357,4.10714 z"
       id="path2816"
       transform="translate(0,352.36218)" />
    <path
       style="fill:#ffffff;stroke:#000000;stroke-width:18;stroke-linecap:butt;stroke-linejoin:miter;stroke-opacity:1;stroke-miterlimit:4;stroke-dasharray:none;fill-opacity:1"
       d="m 387.89858,310.83873 24.11739,-3.91434 22.8547,-6.9448 18.18275,-8.08122 19.82424,-8.9651 16.16244,-8.96511 14.89975,-9.97525 13.00572,-8.96511 10.10152,-8.08122 9.84899,-10.22779 6.06091,-8.5863 6.9448,-11.23795 6.9448,20.07679 14.14214,43.94163 11.99556,38.13326 16.16244,51.0127 12.87944,52.90674 10.2278,45.96194 2.77792,19.1929 -1.01015,26.76905 -1.01016,15.15228 -3.15672,15.90991 -6.81853,20.83439 -8.20749,18.18275 -13.8896,20.96066 -11.99556,13.25826 -11.99556,8.83883 -15.90991,10.10153 -21.08693,4.92449 -16.92006,-0.12627 -24.875,-19.95051 -52.14913,-49.11867 -63.89215,-258.97786 15.78364,-4.04061 z"
       id="path2818"
       transform="translate(0,352.36218)" />
    <path
       style="fill:#000000;stroke:none;stroke-width:1px;stroke-linecap:butt;stroke-linejoin:miter;stroke-opacity:1;fill-opacity:1"
       d="m 146.96429,49.999996 -2.94643,11.964286 -4.10714,14.017857 -0.89286,14.017858 1.875,15.982143 4.10714,12.05357 5.00765,10.97556 6.95664,7.95301 7.05357,8.03572 -5.98214,6.96428 -14.19643,34.01786 -1.875,5.98214 0.0893,5 1.96429,4.82143 5.89286,7.32143 6.07142,11.875 -0.0893,5 -2.85714,7.94643 -15,32.05357 -5,9.91071 -4.01786,18.125 -6.07143,25.98215 -0.98214,5 2.05357,3.92857 4.01785,2.85714 10.98215,3.21429 1.875,5 0.0893,5 0,14.01786 15.98215,4.01785 16.07143,5 15,6.96429 13.92857,9.01786 9.82143,9.01785 7.23214,10.98215 6.96428,12.94642 3.03572,9.01786 -1.96429,4.01786 -4.73214,4.01786 -8.39286,0.98214 -12.85714,0 -4.10714,-2.94643 -5,-4.10714 -8.92857,-12.85715 -6.42858,-6.07142 -10.53571,-5.98215 -12.05357,-5 -17.05357,-4.10714 -6.96429,-0.0893 -3.92857,3.03572 -2.05357,5.98214 0.80357,7.14286 5.17857,3.125 9.01786,2.85714 8.125,5 4.82143,5.98214 7.14285,13.03572 -8.03571,-7.94643 -5.44643,-2.94643 -4.55357,-0.98214 -6.78571,-0.17857 -3.30358,3.92857 -1.875,9.10714 -1.07143,8.83929 1.16072,7.14285 1.78571,14.01786 4.01786,9.91072 5.98214,7.05357 8.92858,7.14285 11.07142,5.89286 -16.96428,-0.17857 -3.03572,-2.67857 -14.01785,-5.08929 -10.98215,-5.35714 -11.07143,-7.76786 -9.017852,-10.89285 -6.964286,-17.05358 -3.035714,-10.98214 -3.035715,-37.94643 -1.964285,-30 -3.928572,-35 L 75,304.82143 l -0.08929,-26.78572 0,-12.14286 4.910714,-39.82142 2.053571,-5.17858 5.089286,-11.96428 8.035715,-11.60714 -0.08929,-19.375 2.946428,-15.98215 5.089286,-20.89285 5.26786,-18.125 6.78571,-15.98215 4.01786,-12.946426 8.39285,-14.017857 8.57143,-11.875001 10.98215,-18.125 z"
       id="path2871"
       transform="translate(0,352.36218)" />
    <path
       style="fill:#ffffff;stroke:none;stroke-width:1px;stroke-linecap:butt;stroke-linejoin:miter;stroke-opacity:1;fill-opacity:1"
       d="M 98.839286,211.875 104.10714,209.01785 118.125,205 l 9.46429,0.89285 11.51785,5.17858 0.89286,5.98214 1.96429,8.92857 0.0893,3.03571 -2.05357,1.07143 -5.625,-4.10714 -5.35714,0 -15.89286,0.98214 -6.25,-1.60714 -3.66071,-2.41071 -2.14286,-2.05358 -4.107144,-1.875 -1.25,-3.125 3.125,-4.01785 z"
       id="path2875"
       transform="translate(0,352.36218)" />
    <path
       style="fill:#000000;stroke:none;stroke-width:1px;stroke-linecap:butt;stroke-linejoin:miter;stroke-opacity:1;fill-opacity:1"
       d="m 255.89286,196.96428 10.08928,6.96429 6.875,8.03571 11.16072,17.14286 L 295,248.03571 293.03572,250 282.94643,236.96428 271.96429,225 l -13.92857,-11.07143 -6.07143,-2.94643 -18.92857,-3.03571 -6.25,-2.05358 -6.78572,-5.80357 -1.07143,-6.96428 2.05357,-4.10715 7.05358,-3.03571 8.03571,1.96429 19.82143,9.01785 z"
       id="path3649"
       transform="translate(0,352.36218)" />
    <path
       style="fill:#000000;stroke:none;stroke-width:1px;stroke-linecap:butt;stroke-linejoin:miter;stroke-opacity:1;fill-opacity:1"
       d="m 212.85714,230 4.91072,-1.07143 9.19643,1.07143 9.01785,1.875 9.10715,4.10714 7.94643,8.03571 6.96428,7.94643 5,8.92857 2.05357,5.08929 L 266.07143,270 260.625,270.98214 243.03572,271.96428 235,269.01785 225.08929,263.03571 215,258.03571 210.89286,255 l -4.91072,-0.80357 -7.5,-0.17858 -2.58928,-0.98214 0.17857,-2.94643 L 212.85714,230 z"
       id="path3651"
       transform="translate(0,352.36218)" />
    <path
       style="fill:#000000;stroke:none;stroke-width:1px;stroke-linecap:butt;stroke-linejoin:miter;stroke-opacity:1;fill-opacity:1"
       d="m 201.96429,331.96428 1.07143,10 L 205,350 l 3.03572,7.05357 14.91071,20.89286 13.03571,8.92857 7.05358,23.21428 2.76785,5.98215 1.25,7.94643 -0.98214,5 -5.08929,5.89285 -5.08928,1.96429 3.125,-5.71429 1.96428,-11.07143 -1.96428,-10.17857 -6.07143,-10.89285 -9.01786,-14.10715 -6.96428,-8.83928 L 210,368.03571 205,360 l -2.32143,-8.03572 -0.71428,-20 z"
       id="path4200"
       transform="translate(0,352.36218)" />
    <path
       style="fill:#000000;stroke:none;stroke-width:1px;stroke-linecap:butt;stroke-linejoin:miter;stroke-opacity:1;fill-opacity:1"
       d="m 485,395 -1.07143,-9.91072 3.30358,-9.10714 5.80357,-7.94643 8.92857,-8.92857 11.07143,-7.23214 12.05357,-2.76786 10.98214,2.85714 11.96429,0.0893 7.85714,4.01786 5.08929,4.91071 0,5 -5,3.03572 -7.94643,1.96428 -11.07143,5 -10,5 -10,5.98214 -5.98214,4.01786 -7.94643,4.01786 -10,7.05357 L 485,395 z"
       id="path4202"
       transform="translate(0,352.36218)" />
    <path
       style="fill:#000000;stroke:none;stroke-width:1px;stroke-linecap:butt;stroke-linejoin:miter;stroke-opacity:1;fill-opacity:1"
       d="m 559.01786,306.875 -12.05357,-3.83929 -10,-1.07143 -10,1.07143 -6.875,4.01786 -7.05357,6.96429 -9.73215,12.94642 -9.19642,9.01786 -15,9.91072 -7.14286,1.07142 -6.96429,-0.98214 -4.01785,-3.03571 -1.07143,-5.98215 1.96428,-5.08928 6.33929,-2.85714 6.69643,-2.05358 12.05357,-6.96428 11.07143,-10.98215 7.94643,-9.91071 5.98214,-6.16071 7.05357,-2.85715 9.01786,-1.16071 8.92857,1.07143 7.05357,3.03571 6.16071,5.08929 8.83929,8.75 z"
       id="path4204"
       transform="translate(0,352.36218)" />
    <path
       style="fill:#000000;stroke:none;stroke-width:1px;stroke-linecap:butt;stroke-linejoin:miter;stroke-opacity:1;fill-opacity:1"
       d="M 274.19643,285.98214 290,292.05357 l 15.80357,3.92857 66.07143,5.98214 21.16072,3.03572 5.98214,23.03571 4.01786,26.07143 4.01785,8.92857 4.82143,6.96429 7.05357,4.01786 10.08929,3.92857 4.10714,4.01785 1.78572,6.07143 1.07143,7.94643 L 435,426.875 l 0.98215,9.01786 8.03571,72.23214 2.94643,5.89286 4.01786,1.96428 4.91071,0.89286 18.125,-2.85714 5.08929,-0.98215 1.875,1.96429 8.92857,20 9.46428,-1.96429 12.58929,-2.14285 8.83928,-5.89286 6.07143,-6.96429 5.08929,-9.01785 7.05357,-15 5.98214,-8.125 6.96429,-1.96429 7.05357,0 6.78571,3.03571 3.21429,4.01786 0.625,5 -0.71429,15.26786 -1.875,12.76786 -5.08928,16.07142 -7.05357,12.94643 -11.96429,8.92857 -10,6.96429 -13.92857,5.98214 -13.125,3.125 -11.78571,1.96429 -0.17858,6.07143 3.92858,6.96428 10.17857,-0.0893 7.94643,-2.85714 5.98214,3.92857 -1.875,5.89285 -2.14286,8.125 1.07143,11.96429 2.76786,10 6.25,9.01786 7.94643,9.01785 L 509.01786,650 490.98215,646.96429 470.89286,642.05357 453.75,636.96429 434.91072,629.01786 416.07143,615 l -19.10714,-18.125 -20,-23.92857 L 358.125,543.92857 343.92857,515 330,479.10714 l -10.89286,-28.125 -8.125,-31.875 -4.82142,-10 -5.17858,-5.98214 -2.94642,-12.94643 -15,-60.08929 -8.83929,-44.10714 z"
       id="path2885"
       transform="translate(0,352.36218)" />
    <path
       style="fill:#ffffff;stroke:none;stroke-width:1px;stroke-linecap:butt;stroke-linejoin:miter;stroke-opacity:1;fill-opacity:1"
       d="m 341.78572,405 12.14285,-6.96429 12.94643,-4.01785 14.10714,0.89285 9.10715,3.125 7.94643,5.08929 4.91071,6.96428 0.0893,2.85715 -4.91072,5.08928 -5.17857,0.89286 -5.98214,1.96429 -33.125,0 -5.89286,3.125 L 339.01786,425 335,424.01786 334.01786,420.98214 335,418.03571 341.78572,405 z"
       id="path3659"
       transform="translate(0,352.36218)" />
    <path
       style="fill:#000000;stroke:none;stroke-width:1px;stroke-linecap:butt;stroke-linejoin:miter;stroke-opacity:1;fill-opacity:1"
       d="m 508.03572,474.01786 10.08928,2.85714 9.91072,-0.89286 7.94643,-4.82143 10.98214,-5.26785 10,-0.89286 9.28571,1.96428 L 575,470 l 7.94643,5.98214 6.07143,8.03572 3.66071,7.94642 -9.64285,-10 L 570,474.01786 556.96429,471.875 l -10,1.25 -8.92857,3.83928 -5,8.03572 -3.30357,0.98214 -5.71429,-3.48214 -15.98214,-8.48214 z"
       id="path3663"
       transform="translate(0,352.36218)" />
  </g>
</svg>
