<?xml version="1.0" encoding="UTF-8" standalone="no"?>
<!-- Created with Inkscape (http://www.inkscape.org/) -->

<svg
   xmlns:dc="http://purl.org/dc/elements/1.1/"
   xmlns:cc="http://creativecommons.org/ns#"
   xmlns:rdf="http://www.w3.org/1999/02/22-rdf-syntax-ns#"
   xmlns:svg="http://www.w3.org/2000/svg"
   xmlns="http://www.w3.org/2000/svg"
   xmlns:sodipodi="http://sodipodi.sourceforge.net/DTD/sodipodi-0.dtd"
   xmlns:inkscape="http://www.inkscape.org/namespaces/inkscape"
   width="500"
   height="500"
   id="svg2"
   version="1.1"
   inkscape:version="0.47 r22583"
   sodipodi:docname="Neues Dokument 1">
  <defs
     id="defs4">
    <inkscape:perspective
       sodipodi:type="inkscape:persp3d"
       inkscape:vp_x="0 : 526.18109 : 1"
       inkscape:vp_y="0 : 1000 : 0"
       inkscape:vp_z="744.09448 : 526.18109 : 1"
       inkscape:persp3d-origin="372.04724 : 350.78739 : 1"
       id="perspective10" />
  </defs>
  <sodipodi:namedview
     id="base"
     pagecolor="#ffffff"
     bordercolor="#666666"
     borderopacity="1.0"
     inkscape:pageopacity="0.0"
     inkscape:pageshadow="2"
     inkscape:zoom="0.98994949"
     inkscape:cx="-40.326941"
     inkscape:cy="149.9518"
     inkscape:document-units="px"
     inkscape:current-layer="layer1"
     showgrid="true"
     inkscape:snap-grids="false"
     inkscape:window-width="1920"
     inkscape:window-height="1009"
     inkscape:window-x="0"
     inkscape:window-y="25"
     inkscape:window-maximized="1">
    <inkscape:grid
       type="xygrid"
       id="grid2816"
       empspacing="5"
       visible="true"
       enabled="true"
       snapvisiblegridlinesonly="true" />
  </sodipodi:namedview>
  <metadata
     id="metadata7">
    <rdf:RDF>
      <cc:Work
         rdf:about="">
        <dc:format>image/svg+xml</dc:format>
        <dc:type
           rdf:resource="http://purl.org/dc/dcmitype/StillImage" />
        <dc:title></dc:title>
      </cc:Work>
    </rdf:RDF>
  </metadata>
  <g
     inkscape:label="Ebene 1"
     inkscape:groupmode="layer"
     id="layer1"
     transform="translate(0,-552.36218)">
    <path
       style="fill:none;stroke:#000000;stroke-width:35;stroke-linecap:butt;stroke-linejoin:miter;stroke-opacity:1;marker-start:none;stroke-miterlimit:4;stroke-dasharray:none"
       d="m 160,140 0,110 0,90"
       id="path2820"
       transform="translate(0,552.36218)" />
    <path
       style="fill:none;stroke:#000000;stroke-width:35;stroke-linecap:butt;stroke-linejoin:miter;stroke-opacity:1;stroke-miterlimit:4;stroke-dasharray:none"
       d="m 360,340 0,-90 0,-110"
       id="path3776"
       transform="translate(0,552.36218)" />
    <path
       style="fill:none;stroke:#000000;stroke-width:35;stroke-linecap:butt;stroke-linejoin:miter;stroke-opacity:1;stroke-miterlimit:4;stroke-dasharray:none"
       d="m 160,290 200,0"
       id="path3778"
       transform="translate(0,552.36218)" />
    <path
       style="fill:none;stroke:#000000;stroke-width:18;stroke-miterlimit:4;stroke-opacity:1;stroke-dasharray:none"
       d="m 241.33192,832.27315 c 0.38837,12.96172 -62.33028,17.78895 -74.50617,-3.14537 -12.60018,-24.88957 -2.88629,-57.33578 -5.23519,-84.54644 48.66878,0 79.74136,39.26095 79.74136,87.69181 z"
       id="path3796"
       sodipodi:nodetypes="cccc" />
    <path
       style="fill:none;stroke:#000000;stroke-width:18;stroke-miterlimit:4;stroke-opacity:1"
       d="m 284.03668,774.8841 c 30.67967,0 53.66079,5.52672 79.55019,20.7921 7.76645,21.42733 -3.02495,25.41048 -3.72036,33.75797 -1.77088,21.25713 -12.86791,18.18142 -37.78071,14.77369 -15.54874,-2.12685 -27.11424,-4.716 -40.37328,-3.43184 -8.27547,0.80149 -28.43336,2.6838 -32.13951,1.35064 -3.82909,-1.37737 -9.65096,-34.15623 -8.92987,-30.27791 0.24269,1.30533 -1.98624,-8.49842 -2.55044,-10.76759 -0.64982,-2.61357 -6.3343,-13.12978 -6.59888,-14.62225 15.26445,-3.0166 31.30255,-10.88327 52.54286,-11.57481 z"
       id="path3812"
       sodipodi:nodetypes="ccsssssscc" />
  </g>
</svg>
