<?xml version="1.0" encoding="UTF-8" standalone="no"?>
<!-- Created with Inkscape (http://www.inkscape.org/) -->

<svg
   xmlns:svg="http://www.w3.org/2000/svg"
   xmlns="http://www.w3.org/2000/svg"
   version="1.1"
   width="4800"
   height="4400"
   id="svg3004">
  <defs
     id="defs3006" />
  <g
     transform="translate(0,3347.6378)"
     id="layer1">
    <path
       d="M 922.5864,-1964.47 1080,-2347.6378 l 157.4136,383.1678 150.4834,0"
       id="path2828"
       style="fill:none;stroke:#00ff00;stroke-width:39.68935776;stroke-linecap:butt;stroke-linejoin:miter;stroke-miterlimit:4;stroke-opacity:1;stroke-dasharray:none" />
    <path
       d="m 1279.3382,-2189.7276 c -53.3423,-31.8989 -79.918,-90.5891 -79.918,-158.3403 0,-101.5535 80.5061,-183.8789 179.8155,-183.8789 99.3094,0 168.1246,96.3793 168.1246,197.9328 0,58.7857 -26.2429,110.6256 -68.2271,144.2864"
       id="path3604"
       style="fill:none;stroke:#00ff00;stroke-width:35.35699844;stroke-miterlimit:4;stroke-opacity:1;stroke-dasharray:none" />
    <path
       d="m 1467.3193,-2188.8244 152.8789,0"
       id="path3602"
       style="fill:none;stroke:#00ff00;stroke-width:38.55284882;stroke-linecap:butt;stroke-linejoin:miter;stroke-miterlimit:4;stroke-opacity:1;stroke-dasharray:none" />
    <path
       d="m 3323.2482,-1962.3802 157.4136,-383.1678 157.4136,383.1678 150.4834,0"
       id="path2828-2"
       style="fill:none;stroke:#00ff00;stroke-width:39.68935776;stroke-linecap:butt;stroke-linejoin:miter;stroke-miterlimit:4;stroke-opacity:1;stroke-dasharray:none" />
    <path
       d="m 3680,-2187.6378 c -53.3423,-31.8989 -79.918,-90.5891 -79.918,-158.3403 0,-101.5535 80.5061,-183.8789 179.8155,-183.8789 99.3094,0 168.1246,96.3793 168.1246,197.9328 0,58.7857 -26.2429,110.6256 -68.2271,144.2864"
       id="path3604-0"
       style="fill:none;stroke:#00ff00;stroke-width:35.35699844;stroke-miterlimit:4;stroke-opacity:1;stroke-dasharray:none" />
    <path
       d="m 3867.9811,-2186.7346 152.8789,0"
       id="path3602-6"
       style="fill:none;stroke:#00ff00;stroke-width:38.55284882;stroke-linecap:butt;stroke-linejoin:miter;stroke-miterlimit:4;stroke-opacity:1;stroke-dasharray:none" />
    <path
       d="m 43.2482,157.6198 157.4136,-383.1678 157.4136,383.1678 150.4834,0"
       id="path2828-5"
       style="fill:none;stroke:#00ff00;stroke-width:39.68935776;stroke-linecap:butt;stroke-linejoin:miter;stroke-miterlimit:4;stroke-opacity:1;stroke-dasharray:none" />
    <path
       d="m 400,-67.6378 c -53.3423,-31.8989 -79.918,-90.5891 -79.918,-158.3403 0,-101.5535 80.5061,-183.8789 179.8155,-183.8789 99.3094,0 168.1246,96.3793 168.1246,197.9328 0,58.7857 -26.2429,110.6256 -68.2271,144.2864"
       id="path3604-5"
       style="fill:none;stroke:#00ff00;stroke-width:35.35699844;stroke-miterlimit:4;stroke-opacity:1;stroke-dasharray:none" />
    <path
       d="m 587.9811,-66.7346 152.8789,0"
       id="path3602-4"
       style="fill:none;stroke:#00ff00;stroke-width:38.55284882;stroke-linecap:butt;stroke-linejoin:miter;stroke-miterlimit:4;stroke-opacity:1;stroke-dasharray:none" />
    <path
       d="m 2083.2482,157.6198 157.4136,-383.1678 157.4136,383.1678 150.4834,0"
       id="path2828-5-7"
       style="fill:none;stroke:#00ff00;stroke-width:39.68935776;stroke-linecap:butt;stroke-linejoin:miter;stroke-miterlimit:4;stroke-opacity:1;stroke-dasharray:none" />
    <path
       d="m 2440,-67.6378 c -53.3423,-31.8989 -79.918,-90.5891 -79.918,-158.3403 0,-101.5535 80.5061,-183.8789 179.8155,-183.8789 99.3094,0 168.1246,96.3793 168.1246,197.9328 0,58.7857 -26.2429,110.6256 -68.2271,144.2864"
       id="path3604-5-6"
       style="fill:none;stroke:#00ff00;stroke-width:35.35699844;stroke-miterlimit:4;stroke-opacity:1;stroke-dasharray:none" />
    <path
       d="m 2627.9811,-66.7346 152.8789,0"
       id="path3602-4-5"
       style="fill:none;stroke:#00ff00;stroke-width:38.55284882;stroke-linecap:butt;stroke-linejoin:miter;stroke-miterlimit:4;stroke-opacity:1;stroke-dasharray:none" />
  </g>
</svg>
