<?xml version="1.0" encoding="UTF-8" standalone="no"?>
<!-- Created with Inkscape (http://www.inkscape.org/) -->

<svg
   xmlns:dc="http://purl.org/dc/elements/1.1/"
   xmlns:cc="http://creativecommons.org/ns#"
   xmlns:rdf="http://www.w3.org/1999/02/22-rdf-syntax-ns#"
   xmlns:svg="http://www.w3.org/2000/svg"
   xmlns="http://www.w3.org/2000/svg"
   xmlns:sodipodi="http://sodipodi.sourceforge.net/DTD/sodipodi-0.dtd"
   xmlns:inkscape="http://www.inkscape.org/namespaces/inkscape"
   width="500"
   height="500"
   id="svg2"
   version="1.1"
   inkscape:version="0.47 r22583"
   sodipodi:docname="Bibliothek.svg"
   inkscape:export-filename="/home/goerke/workspace/deegree-alkis/src/main/webapp/WEB-INF/conf/symbols/Bibliothek.png"
   inkscape:export-xdpi="90"
   inkscape:export-ydpi="90">
  <defs
     id="defs4">
    <inkscape:perspective
       sodipodi:type="inkscape:persp3d"
       inkscape:vp_x="0 : 526.18109 : 1"
       inkscape:vp_y="0 : 1000 : 0"
       inkscape:vp_z="744.09448 : 526.18109 : 1"
       inkscape:persp3d-origin="372.04724 : 350.78739 : 1"
       id="perspective10" />
    <inkscape:perspective
       id="perspective3739"
       inkscape:persp3d-origin="0.5 : 0.33333333 : 1"
       inkscape:vp_z="1 : 0.5 : 1"
       inkscape:vp_y="0 : 1000 : 0"
       inkscape:vp_x="0 : 0.5 : 1"
       sodipodi:type="inkscape:persp3d" />
  </defs>
  <sodipodi:namedview
     id="base"
     pagecolor="#ffffff"
     bordercolor="#666666"
     borderopacity="1.0"
     inkscape:pageopacity="0.0"
     inkscape:pageshadow="2"
     inkscape:zoom="0.98994949"
     inkscape:cx="90.412089"
     inkscape:cy="255.40582"
     inkscape:document-units="px"
     inkscape:current-layer="layer1"
     showgrid="false"
     inkscape:window-width="1920"
     inkscape:window-height="1009"
     inkscape:window-x="0"
     inkscape:window-y="25"
     inkscape:window-maximized="1" />
  <metadata
     id="metadata7">
    <rdf:RDF>
      <cc:Work
         rdf:about="">
        <dc:format>image/svg+xml</dc:format>
        <dc:type
           rdf:resource="http://purl.org/dc/dcmitype/StillImage" />
        <dc:title />
      </cc:Work>
    </rdf:RDF>
  </metadata>
  <g
     inkscape:label="Ebene 1"
     inkscape:groupmode="layer"
     id="layer1"
     transform="translate(0,-552.36218)">
    <rect
       style="fill:#ffffff;fill-opacity:1;stroke:none"
       id="rect3714"
       width="500"
       height="501.42856"
       x="0"
       y="-0.71428627"
       transform="translate(0,552.36218)" />
    <path
       style="fill:#cccccc;stroke:#000000;stroke-width:18;stroke-linecap:butt;stroke-linejoin:miter;stroke-opacity:1;stroke-miterlimit:4;stroke-dasharray:none;fill-opacity:1"
       d="m 95,164.91071 5.98214,-2.94643 17.05357,14.91072 15,7.05357 L 151.96429,185 168.92857,180 190,168.03571 l 15.98214,11.875 14.91072,6.96429 L 240,188.03571 256.78571,184.01786 285,170.89286 400,54.999999 399.91072,320 l -115.0477,114.84516 -12.89873,11.22627 -8.92858,4.91071 -10.98214,2.05357 -12.14286,0.89286 -15.80357,-0.89286 -14.10714,-5 -9.01786,-5.08928 L 190,435.08929 l -8.03571,7.85714 -8.92858,5 -17.14285,5.98214 -19.91072,1.07143 -17.14285,-2.05357 -11.875,-4.91072 -7.946433,-6.07142 L 94.910715,435 95,164.91071 z"
       id="path3784"
       transform="translate(0,552.36218)" />
    <path
       style="fill:none;stroke:#000000;stroke-width:18;stroke-linecap:butt;stroke-linejoin:miter;stroke-opacity:1;stroke-miterlimit:4;stroke-dasharray:none"
       d="M 284.98929,436.29725 285,171.69643 284.9893,436.48666"
       id="path3786"
       transform="translate(0,552.36218)" />
    <path
       style="fill:none;stroke:#000000;stroke-width:18;stroke-linecap:butt;stroke-linejoin:miter;stroke-opacity:1;stroke-miterlimit:4;stroke-dasharray:none"
       d="m 190.03495,168.9225 0.12627,268.06923"
       id="path3788"
       transform="translate(0,552.36218)" />
    <path
       style="fill:none;stroke:#000000;stroke-width:17.97062302;stroke-linecap:butt;stroke-linejoin:miter;stroke-miterlimit:4;stroke-opacity:1;stroke-dasharray:none"
       d="M 317.53435,602.7609 188.6313,724.07729"
       id="path3790"
       sodipodi:nodetypes="cc" />
    <path
       style="fill:none;stroke:#000000;stroke-width:18;stroke-linecap:butt;stroke-linejoin:miter;stroke-opacity:1;stroke-miterlimit:4;stroke-dasharray:none"
       d="m 229.99911,50.987191 1.95717,10.985409 11.99556,9.091373 17.92316,2.061025 25,-1.25 22.67857,-14.910715 7.5,-5.982143 2.94643,10 7.05357,7.946429 14.91072,7.053572 20,-0.982143 38.125,-20 -0.0893,0.08929"
       id="path2879"
       transform="translate(0,552.36218)" />
    <path
       style="fill:none;stroke:#000000;stroke-width:19.04382706;stroke-linecap:butt;stroke-linejoin:miter;stroke-miterlimit:4;stroke-opacity:1;stroke-dasharray:none"
       d="M 95.6112,716.84026 237.78167,595.65195"
       id="path3653" />
    <path
       style="fill:none;stroke:#000000;stroke-width:18;stroke-linecap:butt;stroke-linejoin:miter;stroke-opacity:1;stroke-miterlimit:4;stroke-dasharray:none"
       d="m 140.15867,214.88444 -0.12627,53.03301"
       id="path3655"
       transform="translate(0,552.36218)" />
    <path
       style="fill:none;stroke:#000000;stroke-width:18;stroke-linecap:butt;stroke-linejoin:miter;stroke-opacity:1;stroke-miterlimit:4;stroke-dasharray:none"
       d="m 239.02735,215.01071 0,52.90674"
       id="path3659"
       transform="translate(0,552.36218)" />
  </g>
</svg>
