<?xml version="1.0" encoding="UTF-8" standalone="no"?>
<!-- Created with Inkscape (http://www.inkscape.org/) -->

<svg
   xmlns:dc="http://purl.org/dc/elements/1.1/"
   xmlns:cc="http://creativecommons.org/ns#"
   xmlns:rdf="http://www.w3.org/1999/02/22-rdf-syntax-ns#"
   xmlns:svg="http://www.w3.org/2000/svg"
   xmlns="http://www.w3.org/2000/svg"
   xmlns:sodipodi="http://sodipodi.sourceforge.net/DTD/sodipodi-0.dtd"
   xmlns:inkscape="http://www.inkscape.org/namespaces/inkscape"
   width="500"
   height="500"
   id="svg4129"
   version="1.1"
   inkscape:version="0.47 r22583"
   sodipodi:docname="Post.svg"
   inkscape:export-filename="/home/goerke/workspace/deegree-alkis/src/main/webapp/WEB-INF/conf/symbols/Post.png"
   inkscape:export-xdpi="90"
   inkscape:export-ydpi="90">
  <defs
     id="defs4131">
    <inkscape:perspective
       sodipodi:type="inkscape:persp3d"
       inkscape:vp_x="0 : 526.18109 : 1"
       inkscape:vp_y="0 : 1000 : 0"
       inkscape:vp_z="744.09448 : 526.18109 : 1"
       inkscape:persp3d-origin="372.04724 : 350.78739 : 1"
       id="perspective4137" />
  </defs>
  <sodipodi:namedview
     id="base"
     pagecolor="#ffffff"
     bordercolor="#666666"
     borderopacity="1.0"
     inkscape:pageopacity="0.0"
     inkscape:pageshadow="2"
     inkscape:zoom="0.7"
     inkscape:cx="207.95334"
     inkscape:cy="124.59997"
     inkscape:document-units="px"
     inkscape:current-layer="layer1"
     showgrid="false"
     inkscape:window-width="1920"
     inkscape:window-height="1009"
     inkscape:window-x="0"
     inkscape:window-y="25"
     inkscape:window-maximized="1" />
  <metadata
     id="metadata4134">
    <rdf:RDF>
      <cc:Work
         rdf:about="">
        <dc:format>image/svg+xml</dc:format>
        <dc:type
           rdf:resource="http://purl.org/dc/dcmitype/StillImage" />
        <dc:title></dc:title>
      </cc:Work>
    </rdf:RDF>
  </metadata>
  <g
     inkscape:label="Ebene 1"
     inkscape:groupmode="layer"
     id="layer1"
     transform="translate(0,-552.3622)">
    <rect
       style="fill:#ffffb2;fill-opacity:1;stroke:none;stroke-width:25;stroke-miterlimit:4;stroke-opacity:1;stroke-dasharray:none"
       id="rect4139"
       width="499.01535"
       height="499.01535"
       x="0"
       y="-0.02550995"
       transform="translate(0,552.3622)" />
    <path
       sodipodi:type="arc"
       style="fill:#000000;fill-opacity:1;stroke:none"
       id="path4651"
       sodipodi:cx="272.74118"
       sodipodi:cy="258.57355"
       sodipodi:rx="163.64471"
       sodipodi:ry="191.92899"
       d="m 436.38589,258.57355 a 163.64471,191.92899 0 1 1 -327.28942,0 163.64471,191.92899 0 1 1 327.28942,0 z"
       transform="matrix(1.2808642,0,0,0.96052632,-99.331664,508.52589)" />
    <rect
       style="fill:#ffffb2;fill-opacity:1;stroke:none"
       id="rect4654"
       width="465.62997"
       height="175.94928"
       x="26.534018"
       y="543.07404"
       transform="matrix(0.99999999,-1.6441567e-4,-0.01075625,0.99994215,0,0)" />
    <path
       sodipodi:type="arc"
       style="fill:#ffffb2;fill-opacity:1;stroke:none"
       id="path4656"
       sodipodi:cx="218.69803"
       sodipodi:cy="230.28928"
       sodipodi:rx="150.00766"
       sodipodi:ry="18.182745"
       d="m 368.70569,230.28928 a 150.00766,18.182745 0 1 1 -300.015321,0 150.00766,18.182745 0 1 1 300.015321,0 z"
       transform="matrix(1,0,0,8.2500003,0,-1167.2377)" />
    <path
       sodipodi:type="arc"
       style="fill:#000000;fill-opacity:1;stroke:none"
       id="path4658"
       sodipodi:cx="196.97975"
       sodipodi:cy="171.70042"
       sodipodi:rx="96.974648"
       sodipodi:ry="55.558392"
       d="m 293.9544,171.70042 a 96.974648,55.558392 0 1 1 -193.9493,0 96.974648,55.558392 0 1 1 193.9493,0 z"
       transform="matrix(1.2447917,0,0,2.1545455,-25.490568,412.21003)" />
    <path
       sodipodi:type="arc"
       style="fill:#ffffb2;fill-opacity:1;stroke:none"
       id="path4660"
       sodipodi:cx="248.51085"
       sodipodi:cy="216.51262"
       sodipodi:rx="113.65548"
       sodipodi:ry="113.65548"
       d="m 362.16633,216.51262 a 113.65548,113.65548 0 1 1 -227.31096,0 113.65548,113.65548 0 1 1 227.31096,0 z"
       transform="matrix(0.74547139,0,0,0.74861371,34.32455,619.64765)" />
  </g>
</svg>
